The Attacks of 26/11 2013 Hindi Movies HD DVD New Source Sample Included ~ rDX

Screen Shots :
 
http://myimghosting.serveftp.com/13/TheAttacksof2611DVD.html
 
http://myimghost.cwahi.net/TheAttacksof2611DVD.html


Format                                   : AVI
Format/Info                              : Audio Video Interleave
File size                                : 691 MiB
Duration                                 : 1h 55mn
Overall bit rate mode                    : Variable
Overall bit rate                         : 837 Kbps
Writing library                          : MPlayer

Video
ID                                       : 0
Format                                   : MPEG-4 Visual
Format profile                           : Advanced Simple@L5
Format settings, BVOP                    : 1
Format settings, QPel                    : No
Format settings, GMC                     : No warppoints
Format settings, Matrix                  : Custom
Codec ID                                 : XVID
Codec ID/Hint                            : XviD
Duration                                 : 1h 55mn
Bit rate                                 : 736 Kbps
Width                                    : 640 pixels
Height                                   : 272 pixels
Display aspect ratio                     : 2.35:1
Frame rate                               : 24.000 fps
Color space                              : YUV
Chroma subsampling                       : 4:2:0
Bit depth                                : 8 bits
Scan type                                : Progressive
Compression mode                         : Lossy
Bits/(Pixel*Frame)                       : 0.176
Stream size                              : 607 MiB (88%)
Writing library                          : XviD 1.2.1 (UTC 2008-12-04)

Audio
ID                                       : 1
Format                                   : MPEG Audio
Format version                           : Version 1
Format profile                           : Layer 3
Mode                                     : Joint stereo
Codec ID                                 : 55
Codec ID/Hint                            : MP3
Duration                                 : 1h 55mn
Bit rate mode                            : Variable
Bit rate                                 : 91.4 Kbps
Channel(s)                               : 2 channels
Sampling rate                            : 32.0 KHz
Compression mode                         : Lossy
Stream size                              : 75.4 MiB (11%)
Alignment                                : Aligned on interleaves
Interleave, duration                     : 36 ms (0.86 video frame)
Interleave, preload duration             : 485 ms